PathFileType	4	(X/Y/Z)	..\data\2014004\dynamic\2014004_C4_02.trc
DataRate	CameraRate	NumFrames	NumMarkers	Units	OrigDataRate	OrigDataStartFrame	OrigNumFrames
100.000000	100.000000	4	52	mm	100.000000	150	172
Frame#	Time	L_IAS			L_IPS			R_IPS			R_IAS			L_FTC			L_FLE			L_FME			L_FAX			L_TTC			L_FAL			L_TAM			L_FCC			L_FM1			L_FM2			L_FM5			R_FTC			R_FLE			R_FME			R_FAX			R_TTC			R_FAL			R_TAM			R_FCC			R_FM1			R_FM2			R_FM5			CV7			TV10			SXS			SJN			L_SIA			L_SRS			L_SAA			L_SAE			L_HLE			L_HME			L_UOA			L_RSP			L_UHE			L_HM2			L_HM5			R_SIA			R_SRS			R_SAA			R_SAE			R_HLE			R_HME			R_UOA			R_RSP			R_UHE			R_HM2			R_HM5			
		X1	Y1	Z1	X2	Y2	Z2	X3	Y3	Z3	X4	Y4	Z4	X5	Y5	Z5	X6	Y6	Z6	X7	Y7	Z7	X8	Y8	Z8	X9	Y9	Z9	X10	Y10	Z10	X11	Y11	Z11	X12	Y12	Z12	X13	Y13	Z13	X14	Y14	Z14	X15	Y15	Z15	X16	Y16	Z16	X17	Y17	Z17	X18	Y18	Z18	X19	Y19	Z19	X20	Y20	Z20	X21	Y21	Z21	X22	Y22	Z22	X23	Y23	Z23	X24	Y24	Z24	X25	Y25	Z25	X26	Y26	Z26	X27	Y27	Z27	X28	Y28	Z28	X29	Y29	Z29	X30	Y30	Z30	X31	Y31	Z31	X32	Y32	Z32	X33	Y33	Z33	X34	Y34	Z34	X35	Y35	Z35	X36	Y36	Z36	X37	Y37	Z37	X38	Y38	Z38	X39	Y39	Z39	X40	Y40	Z40	X41	Y41	Z41	X42	Y42	Z42	X43	Y43	Z43	X44	Y44	Z44	X45	Y45	Z45	X46	Y46	Z46	X47	Y47	Z47	X48	Y48	Z48	X49	Y49	Z49	X50	Y50	Z50	X51	Y51	Z51	X52	Y52	Z52	

151	1.5	672.6087646484376	951.2591552734377	132.6343231201173	477.6644287109376	977.7039184570315	218.4863281250001	479.9715576171876	973.7710571289065	310.176971435547	680.0047607421876	960.3663330078127	363.3621215820314	578.9331054687501	891.2532348632815	72.68609619140634	548.0541992187501	474.7102050781251	135.2018280029298	561.1856079101564	483.6615295410157	257.2180175781251	521.4548950195314	415.4055786132814	131.5101470947266	584.8779296875001	393.3378906250001	199.9894866943361	455.7785644531251	57.51720428466798	184.9658660888673	478.0309448242188	82.75727844238283	279.4768676757814	404.3718261718751	28.06374168395997	239.2877044677736	609.9283447265626	19.35516548156739	273.4492797851564	609.9000854492189	34.46679687500001	216.7895355224611	579.6163940429689	14.42393970489502	161.8169708251954	639.8461303710939	881.6633911132815	434.3222045898439	743.6613159179689	469.9786987304689	413.3676757812502	776.9377441406252	481.1786193847657	290.5155334472658	729.0338745117189	435.2374572753907	414.1213989257815	797.5576782226565	422.4589233398439	372.516326904297	652.0837402343751	78.21588134765626	372.6481323242189	674.1153564453126	105.9949645996094	280.0618286132814	597.9541625976564	45.0705795288086	309.8871459960939	798.476013183594	35.81685256958009	303.098602294922	785.7338867187502	49.24765396118165	353.4546813964845	758.8832397460939	31.57983207702637	396.5654296875002	527.6032104492189	1463.59130859375	225.4205780029298	450.7091979980469	1232.359130859375	240.4940643310548	698.2606201171876	1197.060302734375	231.4714965820314	645.4650878906251	1380.266357421875	230.9298553466798	448.0635986328126	1263.168090820313	122.5402145385743	467.5393371582032	1406.448974609375	157.7423095703126	505.3208618164064	1412.388305664063	71.64840698242195	573.5690307617189	1419.654663085938	41.50626373291023	570.9364624023439	1093.761474609375	-23.89702606201165	549.4424438476564	1088.143432617188	60.22860717773445	538.6374511718751	1067.059204101563	11.6215839385987	765.6459960937501	904.3109130859377	4.46574211120615	695.0955200195314	879.3413696289065	-25.52995109558098	816.1193847656252	838.1540527343752	-7.290664672851464	720.9270019531251	792.8928833007815	-14.38228225707999	449.3858337402344	1259.60107421875	356.7780151367189	474.1272888183594	1406.349853515625	320.4696044921876	532.3044433593751	1421.0068359375	396.8257446289064	595.8357543945314	1424.658081054688	414.0779113769533	484.0498657226563	1124.927734375	519.4363403320315	456.9657592773438	1116.735229492188	432.5683898925783	438.1033325195313	1116.74755859375	483.8558654785158	561.4342041015625	861.372009277344	504.4870910644533	494.8542480468751	873.0146484375002	548.7933349609377	572.0953369140625	770.7902832031252	522.5141601562502	469.3127441406251	791.8601074218752	545.784362792969	
152	1.51	683.2655029296876	949.7639770507815	132.6864166259767	488.3865356445314	976.606140136719	218.6307220458986	490.9870910644532	972.6092529296877	310.137664794922	690.9558715820314	959.5466918945315	363.6987915039064	588.7652587890626	889.9507446289065	72.83267211914071	551.2286987304689	474.5052795410157	135.4225006103516	564.7449340820314	483.1480712890626	257.4395751953126	523.8569335937501	415.5469360351564	131.7811279296876	587.3553466796876	392.6557922363282	199.9668426513673	455.7518920898439	57.96818923950197	185.5420074462891	478.5283813476563	83.11319732666017	280.1035766601564	404.5640258789063	28.70003890991212	240.3319854736329	610.0714721679689	19.43358230590821	273.3650207519532	609.9117431640626	34.41545867919923	216.6768951416017	579.3291015625001	14.56310176849366	161.9580688476563	650.4317016601564	880.7369384765627	434.5669250488283	758.2288818359376	469.6891479492189	412.0643310546877	790.9321289062502	482.0246887207032	288.9666137695314	745.6862182617189	434.4552307128907	412.6812744140627	814.4754028320315	424.4897766113282	370.7883911132814	688.3974609375001	73.91781616210939	371.3813476562501	708.3594970703126	102.9202346801758	278.6596679687502	635.1862182617189	38.64267349243165	309.2537536621095	836.003601074219	37.60092926025391	300.4898681640627	823.0631103515627	50.68563079833986	350.9644165039064	797.3129882812502	32.05440902709962	394.4068908691409	538.6907348632814	1462.637573242188	225.9002075195314	461.4555053710938	1231.436401367188	240.6948699951173	709.1801757812501	1195.8798828125	231.5552673339845	656.7437133789064	1379.2412109375	231.315887451172	459.2733764648439	1262.326416015625	122.4574127197266	478.8272094726564	1405.558471679688	157.9014587402345	516.6202392578126	1411.617553710938	71.90427398681648	584.9516601562501	1419.132202148438	41.96227264404305	584.5996704101564	1093.38134765625	-24.47698211669915	563.2782592773439	1087.246459960938	59.70061111450204	552.7904663085939	1065.840698242188	10.95374107360847	785.1177978515627	909.7564086914065	4.237960338592626	715.1483764648439	882.4920043945315	-25.64427185058586	837.2416992187502	845.2552490234377	-7.150983333587546	743.8205566406251	796.8001708984377	-14.20767784118644	460.2839050292969	1258.586303710938	356.7586364746095	485.2456359863282	1405.32568359375	320.7291259765626	543.4031982421876	1419.805786132813	397.1029663085939	606.9122314453126	1423.357177734375	414.4487915039064	494.1239013671876	1123.910278320313	519.0659179687502	467.4526367187501	1115.784912109375	432.1974182128908	447.9836730957032	1116.049194335938	483.3392028808595	569.7054443359375	860.019714355469	505.3071289062502	502.7424926757813	872.0885009765627	549.0676269531252	579.4746704101562	769.2685546875002	523.6175537109377	476.6305847167969	791.1201782226565	546.0180664062502	
153	1.52	694.0214233398439	948.1638183593752	132.8194732666017	499.1731262207032	975.4277343750002	218.6966400146486	502.0575866699219	971.3796386718752	310.0415954589845	701.9501342773439	958.595397949219	364.082977294922	598.7413330078126	888.5946044921877	72.96676635742196	554.6306762695314	474.3081054687501	135.6240997314454	568.5966186523439	482.6180725097657	257.6341247558595	526.5417480468751	415.7129211425782	132.0084686279298	590.0937500000001	391.9839172363282	199.9116058349611	455.692840576172	58.54992294311525	186.0028686523438	479.0378112792969	83.52778625488283	280.6352539062501	404.7568969726563	29.48176383972169	241.2192993164064	610.1522827148439	19.50705718994141	273.3064270019532	609.8942871093751	34.35496520996094	216.5844726562501	579.0319824218751	14.7139310836792	162.0963287353516	660.9985961914064	879.6772460937502	434.8372497558595	772.1685791015627	469.0812072753907	410.7112731933596	804.303649902344	482.4872436523439	287.2811889648439	761.7407836914064	433.4947204589845	411.1844787597659	830.7078857421877	426.307586669922	369.0081176757814	724.4618530273439	70.52211761474611	370.1853942871095	742.3720092773439	100.6046905517578	277.352996826172	672.2763061523439	33.20178604125977	308.6497497558595	872.998718261719	40.17929458618165	297.9176025390627	859.8754882812502	52.919002532959	348.5139465332033	835.2631835937502	33.39262390136719	392.3069458007815	549.6908569335939	1461.609497070313	226.528778076172	472.2698974609376	1230.379760742188	240.8898315429689	720.1636352539064	1194.597412109375	231.7178955078126	668.0780639648439	1378.112915039063	231.7720947265626	470.5511169433595	1261.338256835938	122.3904495239259	490.1895751953126	1404.529174804688	158.0751342773438	527.9857177734376	1410.708984375	72.20578002929696	596.3994750976564	1418.449584960938	42.45546340942391	598.1964111328126	1092.872802734375	-25.03372955322259	577.0566406250001	1086.197265625	59.20505905151376	566.8314819335939	1064.521362304688	10.35416889190681	804.1307373046877	915.0181884765627	4.117330074310402	734.8533325195314	885.5993652343752	-25.74488067626945	857.8414306640627	852.1640625000002	-6.901007652282612	766.2480468750001	800.691589355469	-14.07076740264884	471.2083129882813	1257.418823242188	356.759490966797	496.4172058105469	1404.113647460938	320.9743652343751	554.4868164062501	1418.468139648438	397.4252014160158	617.9747314453126	1421.939331054688	414.8758544921877	504.3631591796876	1122.736694335938	518.7644653320315	478.0409851074219	1114.658081054688	431.8861389160158	458.0160827636719	1115.153076171875	482.901580810547	578.3128051757812	858.5780029296877	506.1180114746095	510.9955139160157	871.015563964844	549.3695068359377	587.285400390625	767.6734008789064	524.6619262695315	484.3800354003907	790.2047119140627	546.2700195312502	
154	1.53	704.8714599609376	946.4783325195315	133.0023956298829	510.0361938476564	974.1763305664065	218.7252655029298	513.1876220703126	970.087829589844	309.9360961914064	713.0173339843751	957.5100097656252	364.4725036621095	608.8341064453126	887.2012329101565	73.0882110595704	558.3339233398439	474.1155700683595	135.7949829101563	572.8130493164064	482.0716247558595	257.7795715332032	529.5744018554689	415.9013061523439	132.1829376220704	593.1495361328126	391.3189392089845	199.8095550537111	455.6056213378907	59.28753662109376	186.3392639160157	479.5737304687501	84.0155715942383	281.0548095703126	404.9606018066407	30.42488479614259	241.9305725097657	610.1810913085939	19.5764389038086	273.2717285156251	609.8547363281251	34.2904167175293	216.5118713378908	578.7355957031251	14.87487030029297	162.2284545898438	671.6295776367189	878.5017700195315	435.1271362304689	785.5228271484377	468.1669006347657	409.3140869140627	817.0532226562502	482.5510864257814	285.4861145019533	777.1853027343752	432.3641052246095	409.6462402343752	846.265563964844	427.9020385742189	367.2061767578127	760.0429687500001	68.01953887939455	369.0586242675783	775.960388183594	99.04355621337893	276.1528625488283	709.0097656250001	28.74310874938966	308.054412841797	909.2900390625002	43.59728240966798	295.479217529297	895.9658813476565	55.97536087036134	346.1925048828127	872.508972167969	35.60586547851563	390.3277282714846	560.6007080078126	1460.519409179688	227.3160095214845	483.1622619628907	1229.199096679688	241.0799865722657	731.2147827148439	1193.21826171875	231.9581146240236	679.4709472656251	1376.885009765625	232.2982482910158	481.8963623046876	1260.221069335938	122.3408126831056	501.6275939941407	1403.37158203125	158.2685852050782	539.4237060546876	1409.674194335938	72.5519561767579	607.9211425781251	1417.613159179688	42.9872131347657	611.7349243164064	1092.244506835938	-25.58009910583489	590.7697143554689	1085.00341796875	58.74651718139657	580.7565917968751	1063.1083984375	9.819622993469311	822.675964355469	920.0504150390627	4.105192184448343	754.1853637695314	888.6226196289065	-25.81551933288566	877.9191894531252	858.826354980469	-6.562134742736711	788.1732177734377	804.5183715820315	-13.96303749084463	482.1698608398438	1256.107299804688	356.781951904297	507.6375427246094	1402.736450195313	321.2180175781251	565.5658569335939	1417.002807617188	397.7942810058595	629.0313720703126	1420.41064453125	415.3612060546877	514.7455444335938	1121.415771484375	518.543395996094	488.7182006835938	1113.366455078125	431.6422119140627	468.2060241699219	1114.065551757813	482.5496520996095	587.251708984375	857.043395996094	506.9118041992189	519.6229248046875	869.8005371093752	549.697937011719	595.536865234375	766.0112304687501	525.6478271484377	492.5691528320313	789.114685058594	546.5444946289065	
